<svg xmlns="http://www.w3.org/2000/svg" enable-background="new 0 0 73 73" viewBox="0 0 73 73" width="256" height="256"><path d="M16.1437931 44.2993164c1.2425365 5.9090271 7.0626297 9.7382774 13.0195313 8.4902344 3.1630878-.6660156 5.8603535-2.6816406 7.4003925-5.53125 3.235157-6.0004501.2947731-13.6501923-6.4335957-15.7109356C22.2442741 29.0792427 14.4120293 36.0671616 16.1437931 44.2993164zM29.6867619 32.9799805c5.8275318 1.7843857 8.3419704 8.4018211 5.5566425 13.5654297-1.3300781 2.4609375-3.658205 4.2011719-6.3886738 4.7753906-5.1210938 1.0810547-10.1669922-2.2109375-11.2421875-7.3300781C16.1196728 36.8954163 22.8684597 30.8465137 29.6867619 32.9799805zM47.2951622 19.1625996c1.9072266-.4794922 3.9697266-1.5664063 5.3847656-2.8359375.339119-.3058319.3256454-.8286324-.0029297-1.1191406-1.7480469-1.5527344-3.6064453-3.0224609-5.5214844-4.3681641-.5939255-.4191399-1.3896942.1646652-1.1193848.8763428C46.8290062 16.8340683 45.5983772 19.5935287 47.2951622 19.1625996zM47.8339806 17.4263935c.0185547-1.6229248-.0229492-3.0701904-.1291504-4.3145752 1.1314087.8452148 2.2461548 1.7167969 3.3129883 2.6367188C50.0867271 16.4418964 48.9587975 17.0312519 47.8339806 17.4263935zM56.4924278 23.6118183c.0097656.0009766.0195313.0009766.0292969.0009766.4003906 0 .7333984-.3173828.7480469-.7216797.015625-.4140625-.3066406-.7626953-.7207031-.7773438L42.886898 21.6020527l.0342407-.3496094c.0988235-.9929619-1.394886-1.1241436-1.4921875-.1464844l-.0430298.4398193-1.0263214-.0384521c-.410141-.0615234-.7626801.3066406-.7773285.7207031-.015625.4140625.3066406.7626953.7207031.7773438l.9367676.0351563-.0168457.171875c-.0956573.9845619 1.3971558 1.1373405 1.4921875.1445313l.0254517-.2602539L56.4924278 23.6118183z" fill="#000000" class="color000 svgShape"></path><path d="M65.4807053,48.8139648H47.3810997c-1.3789063,0-2.5,1.1210938-2.5,2.5v8.2556152l-12.4550781,0.1555176l-0.3981323-2.4348145c4.2639771-1.4406738,7.8622437-4.791748,9.5153198-8.989502c0.8441162-2.1521034,1.2186928-4.6260986,0.9612427-7.2030029l6.7243042-6.5562744c0.1445313-0.1416016,0.2265625-0.3349609,0.2265625-0.5371094v-5.7615948c3.1285362,0.007576,6.2551689-0.1344528,9.3291016-0.4678955c0.7103271-0.0095215,1.3585205-0.2592773,1.8858643-0.6557617c2.0086861-0.7719746,2.3231087-2.9507599,2.4331055-5.041748c0.2036743-3.8687744,0.2025757-7.748291-0.0031738-11.6169434c-0.0961266-1.8064661-0.2824249-3.5738215-1.7294922-4.6612549c-1.0050735-1.4524612-2.4755516-1.3485537-2.5755615-1.3758545c-6.4628906-0.46875-13.0664063-0.4667969-19.5703125-0.0019531c-1.7666016,0-3.2041016,1.4375-3.2011719,3.1396484c-0.4697266,5.4589844-0.4697266,11.2021484-0.0029297,17.0097656c0,1.7646484,1.4345703,3.2011719,3.1357422,3.2011719c1.0504494,0.0713577,4.162384,0.3798733,8.7988281,0.4528809v5.4631329l-5.7405396,5.597168c-1.3128281-6.0328178-5.762516-9.9866028-11.1705952-11.6157207c-1.2006149-0.3628445-2.3211746-0.5337162-3.5108643-0.5947266l-0.4910889-7.3193359c-0.0263672-0.3945313-0.3535156-0.7001953-0.7480469-0.7001953h-3.6333008c0.0254822-4.9443207,0.2313824-6.8703938-0.8692627-8.7296143c-0.3978882-1.4207764-1.6903687-2.4715576-3.2366943-2.4715576H8.4357853c-1.8613281,0-3.375,1.5136719-3.375,3.375v10.1191406c0,1.8613281,1.5136719,3.375,3.375,3.375c10.3133373-0.0984726,10.3161201,0.2218914,11.4744873-0.2888184c0.861084-0.0871582,1.7015381-0.7034912,2.1320801-1.4924316c0.3971558-0.7275391,0.527832-1.5512695,0.5783691-2.3867188h2.97229l0.4369507,6.5109863c-9.0751629,0.4298286-15.4697561,8.6012058-14.350708,17.5239239c0.4666815,3.5886574,2.1160107,6.5406303,4.1455688,8.5441895c-0.2968721,0.3836327-0.5727272,0.7722282-0.8195801,1.1033936c-0.5931206-0.474762-1.4174976-0.3414803-1.8458252,0.225708c-1.1640625,1.5419922-2.3662109,3.1416016-3.5703125,4.7421875c-1.3876953,1.8447266-2.7763672,3.6914063-4.109375,5.4560547c-0.6875,0.9111328-0.6513672,2.7148438,0.4238281,3.5888672c0.7678537,0.6247406,1.7656384,0.8594208,2.6901855,0.5249023c2.5153084-0.3736038,3.6197081-2.9406891,8.5733032-9.9614258c0.2076664-0.2945366,0.2126808-0.5933037,0.2149048-0.9819336c0.3947754-0.5527344,0.3000488-1.3139648-0.2321777-1.7563477c0.2662354-0.3239746,0.5325928-0.6479492,0.7987671-0.9719238c0.103508,0.0447388,5.371769,4.2573776,12.6281128,2.6066895l0.4733887,2.8935547c0.059557,0.3632813,0.3730469,0.6289063,0.7402344,0.6289063c0.0029297,0,0.0058594,0,0.0097656,0l13.0810566-0.1630859v4.5556641c0,1.3789063,1.1210938,2.5,2.5,2.5h18.0996056c1.378891,0,2.5-1.1210938,2.5-2.5V51.3139648C67.9807053,49.9350586,66.8595963,48.8139648,65.4807053,48.8139648z M37.518795,24.5112324c-0.4628906-5.7851563-0.4628906-11.4453125,0.0019531-16.8857422c0-0.9394531,0.7646484-1.7041016,1.7578125-1.7060547c6.469677-0.4622593,13.0100594-0.4628696,19.4628906,0.0019531c0.9394531,0,1.7041016,0.7646484,1.7060547,1.7578125c0.4667969,6.4931641,0.4677734,11.9951172-0.0019531,16.8916016c0,0.9394531-0.7646484,1.7041016-1.7041016,1.7041016c-0.0273438,0-0.0546875,0.0019531-0.0810547,0.0048828c-5.6865234,0.6201172-12.0224609,0.6181641-19.4355469-0.0048828C38.2853966,26.2749043,37.5207481,25.5102558,37.518795,24.5112324z M8.4357853,23.2231464c-1.0341797,0-1.875-0.8408203-1.875-1.875V11.2290058c0-1.0341797,0.8408203-1.875,1.875-1.875h10.1191406c1.0341797,0,1.875,0.8408203,1.875,1.875v10.1191406c0,1.0341797-0.8408203,1.875-1.875,1.875H8.4357853z M30.6115665,29.1049824c8.1365185,2.4570065,11.75107,11.3650227,8.7187519,18.2207012c-1.8148499,4.450325-5.6975517,7.3086891-9.7705097,8.1455078c-7.2220211,1.5264244-14.5682936-3.0464897-16.1279297-10.5068359C11.2665596,34.6685333,21.0438461,26.2143803,30.6115665,29.1049824z M6.6769962,65.5649414c2.171052-2.872467,4.9072647-6.521492,7.5517578-10.0283203c0.6070147,0.5172462,1.2183619,1.0710602,1.8242188,1.5771484c-2.4960957,3.2933464-5.144124,6.6962624-7.7070313,10.0878906c-0.2018623,0.2651367-0.8927407,0.3757019-1.4970703-0.1152344C6.4435978,66.7563477,6.4455509,65.871582,6.6769962,65.5649414z M46.3810997,65.6254883V51.3139648c0-0.5517578,0.4482422-1,1-1h18.0996056c0.2009888,0,0.3774414,0.0743408,0.5343018,0.1766357c0.0215454,0.2423096,0.0344849,0.4869385,0.0363159,0.7373047c0.0253296,3.489624,0.0507202,6.979126,0.0760498,10.46875c0.0072632,1.001709,0.0108032,2.0270996-0.3221436,2.9718018c-0.3147583,0.8930664-0.9979858,1.7069092-1.9016685,1.9570313H47.3810997C46.8293419,66.6254883,46.3810997,66.1772461,46.3810997,65.6254883z M65.4807053,66.6254883h-0.432373c0.5512695-0.1833496,1.0529175-0.5588379,1.432373-1.0290527v0.0290527C66.4807053,66.1772461,66.0324631,66.6254883,65.4807053,66.6254883z" fill="#000000" class="color000 svgShape"></path><path d="M60.4680138 58.3383789c-2.1633263-.8103218-2.5030594-3.6173782-2.7148438-5.7109375-.0883293-.874218-1.3608398-.9038544-1.4882813-.0322266l-1.0974121 7.5594482c-.086792-.05896-.1811523-.0997314-.2844849-.1185303-.3707047-.6413841-1.5867386-.5867844-2.1298218.2856445-.2412109.3876953-.3271484.8603516-.2636719 1.4472656.2846909 2.6177902 3.477478 3.3236542 3.9912109-.2207031l.6699219-4.6123047c.6123047 1.3525391 1.6171875 2.3671875 2.7919922 2.8066406C60.8662109 60.0937347 61.4010086 58.6876678 60.4680138 58.3383789zM13.0139103 12.0307636c-.3779297.3046875-.6757813.6835938-.8740234 1.0976563-.8134766-.3076172-1.7705078-.2421875-2.5136719.2421875-1.0976563.7128906-1.5507813 2.2119141-1.0322266 3.4130859.6902876 1.6016827 2.5111485 2.0715313 4.6699219 3.0498047.5399866.2369671.695694-.136425 1.7421875-.7666016.6074219-.3671875 1.2958984-.7841797 1.7353516-1.4199219C19.5303993 13.603179 15.7167749 9.8543291 13.0139103 12.0307636zM15.5070744 16.7944355c-.3816395.553524-1.3058405.9521255-2.0546875 1.4853516-1.8524151-.8297691-3.0967808-1.1971569-3.4814453-2.0898438-.2294922-.53125-.0126953-1.2460938.4726563-1.5615234.4840832-.3162355 1.2235384-.2245655 1.6181641.2011719.2099609.2285156.5390625.3046875.8251953.1894531.8062067-.3170166.1159801-1.0531397 1.0673828-1.8193359C15.3079891 12.1066999 17.2831478 14.225071 15.5070744 16.7944355z" fill="#000000" class="color000 svgShape"></path></svg>